<svg width="24" height="24" viewBox="0 0 24 24" fill="none" xmlns="http://www.w3.org/2000/svg">
  <path d="M7 6.5C7 7.88071 5.88071 9 4.5 9C3.11929 9 2 7.88071 2 6.5C2 5.11929 3.11929 4 4.5 4C5.88071 4 7 5.11929 7 6.5Z" stroke="currentColor" stroke-width="1.8"/>
  <path d="M22 6.5C22 7.88071 20.8807 9 19.5 9C18.1193 9 17 7.88071 17 6.5C17 5.11929 18.1193 4 19.5 4C20.8807 4 22 5.11929 22 6.5Z" stroke="currentColor" stroke-width="1.8"/>
  <path d="M22 17.5C22 18.8807 20.8807 20 19.5 20C18.1193 20 17 18.8807 17 17.5C17 16.1193 18.1193 15 19.5 15C20.8807 15 22 16.1193 22 17.5Z" stroke="currentColor" stroke-width="1.8"/>
  <path d="M7 6.5H11.5C15.9183 6.5 19.5 10.0817 19.5 14.5V15" stroke="currentColor" stroke-width="1.8" stroke-linecap="round"/>
  <path d="M7 6.5H17" stroke="currentColor" stroke-width="1.8" stroke-linecap="round"/>
</svg>
